<svg width="749" height="749" viewBox="0 0 749 749" fill="none" xmlns="http://www.w3.org/2000/svg">
<circle cx="374.5" cy="374.5" r="364" stroke="white" stroke-opacity="0.44" stroke-width="21"/>
<g clip-path="url(#clip0)">
<path d="M596.609 218.726H559.34C564.256 210.946 567.5 202.213 568.425 192.977C571.38 163.46 555.835 137 529.37 125.269C505.044 114.486 477.707 118.894 458.022 136.748L410.962 179.398C401.797 169.374 388.622 163.074 374 163.074C359.352 163.074 346.156 169.394 336.989 179.449L289.869 136.743C270.152 118.889 242.826 114.498 218.511 125.275C192.053 137.007 176.505 163.476 179.469 192.992C180.396 202.221 183.638 210.95 188.553 218.726H151.391C132.949 218.726 118 233.676 118 252.117V302.204C118 311.424 125.475 318.9 134.696 318.9H613.305C622.525 318.9 630.001 311.425 630.001 302.204V252.117C630 233.676 615.051 218.726 596.609 218.726ZM323.913 213.161V218.726H245.37C224.618 218.726 208.286 199.38 213.469 177.774C215.752 168.259 222.62 160.148 231.503 156.042C243.701 150.404 257.213 152.214 267.458 161.487L323.927 212.669C323.924 212.834 323.913 212.996 323.913 213.161ZM535.294 188.544C534.05 205.897 518.375 218.728 500.978 218.728H424.087V213.163C424.087 212.966 424.075 212.771 424.073 212.574C436.865 200.978 464.616 175.826 479.667 162.183C488.221 154.43 500.19 150.811 511.254 154.111C527.131 158.847 536.455 172.349 535.294 188.544Z" fill="white"/>
<path d="M151.391 352.291V597.161C151.391 615.603 166.34 630.552 184.782 630.552H340.608V352.291H151.391Z" fill="white"/>
<path d="M407.391 352.291V630.552H563.217C581.659 630.552 596.608 615.603 596.608 597.161V352.291H407.391Z" fill="white"/>
</g>
<defs>
<clipPath id="clip0">
<rect width="512" height="512" fill="white" transform="translate(118 119)"/>
</clipPath>
</defs>
</svg>
