<svg width="923" height="923" viewBox="0 0 923 923" fill="none" xmlns="http://www.w3.org/2000/svg">
<circle cx="461" cy="462" r="393" fill="white"/>
<circle cx="461.5" cy="461.5" r="459.5" stroke="white" stroke-opacity="0.5" stroke-width="4"/>
<g clip-path="url(#clip0)">
<path d="M320.352 612.869C266.109 569.647 235 505.107 235 435.799C235 366.493 266.107 301.954 320.348 258.732C326.827 253.569 327.893 244.131 322.73 237.653C317.568 231.174 308.13 230.107 301.651 235.27C240.228 284.217 205 357.307 205 435.799C205 514.294 240.229 587.385 301.656 636.331C308.131 641.492 317.57 640.429 322.735 633.948C327.897 627.469 326.831 618.032 320.352 612.869Z" fill="#675190"/>
<path d="M620.351 235.271C613.871 230.109 604.435 231.175 599.272 237.654C594.109 244.133 595.175 253.57 601.654 258.733C655.893 301.956 687 366.494 687 435.799C687 505.105 655.893 569.643 601.653 612.865C595.174 618.028 594.108 627.466 599.271 633.944C604.436 640.426 613.875 641.486 620.35 636.327C681.772 587.38 717 514.29 717 435.799C717 357.308 681.772 284.218 620.351 235.271Z" fill="#675190"/>
<path d="M370.335 550.257C335.169 522.286 315 480.567 315 435.799C315 391.03 335.169 349.311 370.336 321.339C376.819 316.182 377.895 306.746 372.737 300.262C367.579 293.778 358.143 292.703 351.66 297.86C309.297 331.557 285 381.833 285 435.799C285 489.764 309.297 540.04 351.659 573.736C358.147 578.895 367.581 577.815 372.736 571.334C377.893 564.851 376.818 555.414 370.335 550.257Z" fill="#675190"/>
<path d="M570.341 297.862C563.857 292.706 554.422 293.78 549.264 300.264C544.107 306.747 545.182 316.184 551.665 321.341C586.831 349.312 607 391.03 607 435.799C607 480.568 586.831 522.287 551.664 550.258C545.181 555.415 544.105 564.851 549.263 571.335C554.423 577.822 563.861 578.891 570.34 573.737C612.703 540.04 637 489.764 637 435.799C637 381.834 612.703 331.558 570.341 297.862Z" fill="#675190"/>
<path d="M461 361C419.645 361 386 394.645 386 436C386 472.219 411.808 502.522 446 509.491V677C446 685.284 452.716 692 461 692C469.284 692 476 685.284 476 677V509.491C510.192 502.523 536 472.22 536 436C536 394.645 502.355 361 461 361ZM461 481C436.187 481 416 460.813 416 436C416 411.187 436.187 391 461 391C485.813 391 506 411.187 506 436C506 460.813 485.813 481 461 481Z" fill="#675190"/>
</g>
<defs>
<clipPath id="clip0">
<rect width="512" height="512" fill="white" transform="translate(205 206)"/>
</clipPath>
</defs>
</svg>
