<svg width="749" height="749" viewBox="0 0 749 749" fill="none" xmlns="http://www.w3.org/2000/svg">
<circle cx="374.5" cy="374.5" r="364" stroke="white" stroke-opacity="0.44" stroke-width="21"/>
<path d="M473.255 348.5H574.875V339.55C574.875 264.91 518.025 203.31 445.335 195.78V319.58C458.595 324.28 469.015 335.03 473.255 348.5V348.5Z" fill="white"/>
<path d="M475.335 405C475.335 429.81 455.145 450 430.335 450C405.515 450 385.335 429.81 385.335 405V376H285.785V486.45C285.785 566.16 350.625 631 430.325 631C510.035 631 574.875 566.16 574.875 486.45V378.5H475.335V405Z" fill="white"/>
<path d="M430.335 347C422.055 347 415.335 353.73 415.335 362V405C415.335 413.27 422.055 420 430.335 420C438.605 420 445.335 413.27 445.335 405V362C445.335 353.73 438.605 347 430.335 347Z" fill="white"/>
<path d="M415.335 319.58V195.77C413.945 195.91 412.555 196.08 411.175 196.26C340.495 205.66 285.785 266.33 285.785 339.55V346H388.275C392.975 333.71 402.905 323.99 415.335 319.58V319.58Z" fill="white"/>
<path d="M442.265 195.49C443.295 195.57 444.315 195.67 445.335 195.78C434.265 151.88 395.635 119 348.355 119C292.535 119 247.125 164.41 247.125 220.23C247.125 243.26 228.385 262 205.355 262H173.125V292H205.355C244.925 292 277.125 259.8 277.125 220.23C277.125 180.95 309.075 149 348.355 149C379.225 149 405.475 168.25 415.335 195.77C420.265 195.26 425.265 195 430.325 195C434.345 195 438.325 195.16 442.265 195.49V195.49Z" fill="white"/>
</svg>
