<svg width="923" height="923" viewBox="0 0 923 923" fill="none" xmlns="http://www.w3.org/2000/svg">
<circle cx="461" cy="462" r="393" fill="white"/>
<circle cx="461.5" cy="461.5" r="459.5" stroke="white" stroke-opacity="0.5" stroke-width="4"/>
<path d="M523.255 435.5H624.875V426.55C624.875 351.91 568.025 290.31 495.335 282.78V406.58C508.595 411.28 519.015 422.03 523.255 435.5V435.5Z" fill="#675190"/>
<path d="M525.335 492C525.335 516.81 505.145 537 480.335 537C455.515 537 435.335 516.81 435.335 492V463H335.785V573.45C335.785 653.16 400.625 718 480.325 718C560.035 718 624.875 653.16 624.875 573.45V465.5H525.335V492Z" fill="#675190"/>
<path d="M480.335 434C472.055 434 465.335 440.73 465.335 449V492C465.335 500.27 472.055 507 480.335 507C488.605 507 495.335 500.27 495.335 492V449C495.335 440.73 488.605 434 480.335 434Z" fill="#675190"/>
<path d="M465.335 406.58V282.77C463.945 282.91 462.555 283.08 461.175 283.26C390.495 292.66 335.785 353.33 335.785 426.55V433H438.275C442.975 420.71 452.905 410.99 465.335 406.58V406.58Z" fill="#675190"/>
<path d="M492.265 282.49C493.295 282.57 494.315 282.67 495.335 282.78C484.265 238.88 445.635 206 398.355 206C342.535 206 297.125 251.41 297.125 307.23C297.125 330.26 278.385 349 255.355 349H223.125V379H255.355C294.925 379 327.125 346.8 327.125 307.23C327.125 267.95 359.075 236 398.355 236C429.225 236 455.475 255.25 465.335 282.77C470.265 282.26 475.265 282 480.325 282C484.345 282 488.325 282.16 492.265 282.49V282.49Z" fill="#675190"/>
</svg>
