<svg width="923" height="923" viewBox="0 0 923 923" fill="none" xmlns="http://www.w3.org/2000/svg">
<circle cx="461" cy="462" r="393" fill="white"/>
<circle cx="461.5" cy="461.5" r="459.5" stroke="white" stroke-opacity="0.5" stroke-width="4"/>
<g clip-path="url(#clip0)">
<path d="M685 604.667H237C219.357 604.667 205 590.309 205 572.667V295.333C205 277.691 219.357 263.333 237 263.333H328.307C334.195 263.333 338.973 268.112 338.973 274C338.973 279.888 334.195 284.667 328.307 284.667H237C231.112 284.667 226.333 289.445 226.333 295.333V572.667C226.333 578.555 231.112 583.333 237 583.333H685C690.888 583.333 695.667 578.555 695.667 572.667V295.333C695.667 289.445 690.888 284.667 685 284.667H593.693C587.805 284.667 583.027 279.888 583.027 274C583.027 268.112 587.805 263.333 593.693 263.333H685C702.643 263.333 717 277.691 717 295.333V572.667C717 590.309 702.643 604.667 685 604.667Z" fill="#675190"/>
<path d="M557 690H365C359.112 690 354.333 685.221 354.333 679.333C354.333 673.445 359.112 668.667 365 668.667H557C562.888 668.667 567.667 673.445 567.667 679.333C567.667 685.221 562.888 690 557 690Z" fill="#675190"/>
<path d="M429 690C423.112 690 418.333 685.221 418.333 679.333V594C418.333 588.112 423.112 583.333 429 583.333C434.888 583.333 439.667 588.112 439.667 594V679.333C439.667 685.221 434.888 690 429 690Z" fill="#675190"/>
<path d="M493 690C487.112 690 482.333 685.221 482.333 679.333V594C482.333 588.112 487.112 583.333 493 583.333C498.888 583.333 503.667 588.112 503.667 594V679.333C503.667 685.221 498.888 690 493 690Z" fill="#675190"/>
<path d="M397 498C391.112 498 386.333 493.221 386.333 487.333V380.667C386.333 374.779 391.112 370 397 370C402.888 370 407.667 374.779 407.667 380.667V487.333C407.667 493.221 402.888 498 397 498Z" fill="#675190"/>
<path d="M429 391.333H365C359.112 391.333 354.333 386.555 354.333 380.667C354.333 374.779 359.112 370 365 370H429C434.888 370 439.667 374.779 439.667 380.667C439.667 386.555 434.888 391.333 429 391.333Z" fill="#675190"/>
<path d="M525 498C520.285 498 516.125 494.907 514.781 490.405L482.781 383.739C481.096 378.107 484.296 372.155 489.928 370.448C495.56 368.763 501.512 371.963 503.219 377.595L525 450.213L546.781 377.616C548.467 371.963 554.397 368.784 560.072 370.469C565.725 372.176 568.925 378.107 567.219 383.76L535.219 490.427C533.875 494.907 529.715 498 525 498V498Z" fill="#675190"/>
<path d="M461 316.667C452.168 316.667 445 309.499 445 300.667C445 291.835 452.168 284.667 461 284.667C469.832 284.667 477 291.835 477 300.667C477 309.499 469.832 316.667 461 316.667Z" fill="#675190"/>
<path d="M503.667 274C500.595 274 497.544 272.677 495.453 270.139C476.744 247.589 445.235 247.589 426.547 270.139C422.813 274.661 416.093 275.323 411.528 271.525C406.984 267.771 406.365 261.051 410.12 256.528C437.085 224.059 484.915 224.059 511.88 256.528C515.635 261.051 515.016 267.792 510.493 271.547C508.488 273.189 506.077 274 503.667 274V274Z" fill="#675190"/>
<path d="M546.333 242C543.261 242 540.211 240.677 538.099 238.139C517.405 213.115 490.013 199.333 461 199.333C431.987 199.333 404.595 213.115 383.88 238.139C380.125 242.683 373.427 243.344 368.861 239.547C364.317 235.792 363.699 229.072 367.453 224.528C392.285 194.512 425.501 178 461 178C496.499 178 529.715 194.512 554.547 224.528C558.301 229.072 557.661 235.792 553.139 239.547C551.155 241.189 548.744 242 546.333 242V242Z" fill="#675190"/>
</g>
<defs>
<clipPath id="clip0">
<rect width="512" height="512" fill="white" transform="translate(205 178)"/>
</clipPath>
</defs>
</svg>
