<svg width="923" height="923" viewBox="0 0 923 923" fill="none" xmlns="http://www.w3.org/2000/svg">
<circle cx="461" cy="462" r="393" fill="white"/>
<circle cx="461.5" cy="461.5" r="459.5" stroke="white" stroke-opacity="0.5" stroke-width="4"/>
<g clip-path="url(#clip0)">
<path d="M330.265 262.991L385.122 358.007C390.171 366.753 387.175 377.936 378.429 382.986L362.593 392.128L289.45 265.441L305.286 256.298C314.032 251.249 325.215 254.246 330.265 262.991Z" fill="#675190"/>
<path d="M513.122 579.709L567.979 674.725C573.028 683.47 570.032 694.654 561.286 699.703L545.45 708.846L472.307 582.159L488.143 573.016C496.889 567.967 508.072 570.963 513.122 579.709Z" fill="#675190"/>
<path d="M403.123 594.844C411.562 605.584 426.604 608.506 438.45 601.706L456.471 591.302L529.614 717.989L497.943 736.275C447.624 765.326 372.108 701.178 290.764 560.286C209.42 419.395 191.624 321.921 241.943 292.87L273.614 274.584L346.757 401.271L328.736 411.676C316.923 418.536 311.933 433.023 317.015 445.702C327.728 472.46 340.116 498.516 354.107 523.715C368.935 548.431 385.305 572.187 403.123 594.844V594.844Z" fill="#675190"/>
<path d="M567.885 540.838C561.481 544.525 553.488 543.996 547.627 539.496C541.766 534.997 539.188 527.413 541.095 520.274C549.884 487.481 545.284 452.54 528.309 423.139C511.334 393.737 483.374 372.284 450.58 363.498C444.269 361.807 439.339 356.877 437.648 350.566C435.958 344.255 437.761 337.52 442.382 332.9C447.002 328.28 453.736 326.476 460.048 328.167C502.208 339.463 538.154 367.045 559.978 404.845C581.802 442.645 587.715 487.566 576.418 529.726C575.162 534.416 572.092 538.414 567.885 540.838V540.838Z" fill="#675190"/>
<path d="M647.379 562.139C640.974 565.835 632.975 565.31 627.108 560.808C621.242 556.306 618.664 548.714 620.577 541.571C635.014 487.698 627.458 430.297 599.571 381.995C571.684 333.694 525.752 298.449 471.878 284.016C465.465 282.417 460.415 277.482 458.668 271.108C456.92 264.734 458.748 257.914 463.448 253.269C468.148 248.624 474.988 246.875 481.342 248.696C544.582 265.64 598.501 307.014 631.236 363.713C663.971 420.412 672.842 487.794 655.897 551.034C654.642 555.719 651.579 559.714 647.379 562.139V562.139Z" fill="#675190"/>
</g>
<defs>
<clipPath id="clip0">
<rect width="512" height="512" fill="white" transform="translate(205 206)"/>
</clipPath>
</defs>
</svg>
